<?xml version="1.0" encoding="utf-8"?>
<!-- Generator: Adobe Illustrator 24.3.0, SVG Export Plug-In . SVG Version: 6.00 Build 0)  -->
<svg version="1.1" id="Ebene_1" xmlns="http://www.w3.org/2000/svg" xmlns:xlink="http://www.w3.org/1999/xlink" x="0px" y="0px"
	 viewBox="0 0 520 170" style="enable-background:new 0 0 520 170;" xml:space="preserve">
<style type="text/css">
	.st0{fill:#D72305;}
</style>
<g>
	<g>
		<path class="st0" d="M3.49,17.91V2.73c0-0.25,0.22-0.46,0.48-0.46h2.39c0.26,0,0.48,0.21,0.48,0.46v5.75
			c0,0.14,0.1,0.23,0.24,0.23h3.59c0.14,0,0.24-0.09,0.24-0.23V2.73c0-0.25,0.22-0.46,0.48-0.46h2.39c0.26,0,0.48,0.21,0.48,0.46
			v15.18c0,0.25-0.22,0.46-0.48,0.46h-2.39c-0.26,0-0.48-0.21-0.48-0.46v-5.75c0-0.14-0.1-0.23-0.24-0.23H7.08
			c-0.14,0-0.24,0.09-0.24,0.23v5.75c0,0.25-0.34,0.46-0.6,0.46H3.97C3.71,18.37,3.49,18.16,3.49,17.91z"/>
		<path class="st0" d="M18.2,16.81c-0.77-1.01-1.05-2.16-1.05-4.19c0-2.02,0.29-3.17,1.05-4.19c0.84-1.13,2.32-1.82,4-1.82
			c1.67,0,3.16,0.69,4,1.82c0.77,1.01,1.05,2.16,1.05,4.19c0,2.02-0.29,3.17-1.05,4.19c-0.84,1.13-2.32,1.82-4,1.82
			C20.53,18.62,19.04,17.93,18.2,16.81z M23.71,15.08c0.29-0.39,0.38-0.99,0.38-2.46s-0.1-2.07-0.38-2.46
			c-0.31-0.39-0.74-0.55-1.51-0.55c-0.74,0-1.2,0.16-1.51,0.55c-0.29,0.39-0.38,0.99-0.38,2.46s0.1,2.07,0.38,2.46
			c0.31,0.39,0.77,0.55,1.51,0.55C22.97,15.63,23.4,15.47,23.71,15.08z"/>
		<path class="st0" d="M30.55,16.81c-0.77-1.01-1.05-2.16-1.05-4.19c0-2.02,0.29-3.17,1.05-4.19c0.84-1.13,2.32-1.82,4-1.82
			c1.46,0,2.63,0.35,3.45,1.03c0.93,0.78,1.46,2.05,1.46,3.47c0,0.28-0.17,0.46-0.41,0.46h-2.2c-0.26,0-0.43-0.14-0.45-0.37
			c-0.1-0.64-0.24-0.99-0.5-1.24c-0.29-0.25-0.72-0.37-1.34-0.37c-0.74,0-1.2,0.16-1.51,0.55c-0.29,0.39-0.38,0.99-0.38,2.46
			s0.1,2.07,0.38,2.46c0.31,0.39,0.77,0.55,1.51,0.55c0.67,0,1.05-0.09,1.32-0.3c0.29-0.23,0.41-0.53,0.53-1.36
			c0.02-0.21,0.19-0.32,0.45-0.32h2.2c0.24,0,0.41,0.18,0.41,0.46c0,1.29-0.41,2.41-1.12,3.17c-0.84,0.87-2.15,1.33-3.78,1.33
			C32.87,18.62,31.38,17.93,30.55,16.81z"/>
		<path class="st0" d="M41.93,17.91V2.48c0-0.25,0.22-0.46,0.48-0.46h2.15c0.26,0,0.48,0.21,0.48,0.46v4.14
			c0,0.3,0.17,0.53,0.45,0.53c0.24,0,0.86-0.53,2.06-0.53c2.58,0,4.19,1.61,4.19,4.25v7.04c0,0.25-0.22,0.46-0.48,0.46h-2.15
			c-0.26,0-0.48-0.21-0.48-0.46V11.1c0-0.99-0.65-1.59-1.79-1.59c-1.12,0-1.79,0.57-1.79,1.49v6.9c0,0.25-0.22,0.46-0.48,0.46h-2.15
			C42.15,18.37,41.93,18.16,41.93,17.91z"/>
		<path class="st0" d="M53.89,14.55c0-0.25,0.19-0.41,0.48-0.41h2.06c0.29,0,0.48,0.16,0.48,0.41c0,0.99,0.62,1.47,1.89,1.47
			c1.17,0,1.77-0.34,1.77-1.01c0-0.6-0.53-0.87-2.42-1.29c-2.61-0.55-3.83-1.77-3.83-3.77c0-1.98,1.84-3.33,4.47-3.33
			c2.78,0,4.55,1.4,4.55,3.63c0,0.25-0.19,0.41-0.48,0.41h-1.94c-0.29,0-0.48-0.16-0.48-0.41c0-0.71-0.57-1.1-1.63-1.1
			c-0.86,0-1.41,0.35-1.41,0.9c0,0.57,0.43,0.8,2.44,1.29c2.87,0.67,3.83,1.56,3.83,3.61c0,2.3-1.82,3.68-4.88,3.68
			C55.71,18.62,53.89,17.1,53.89,14.55z"/>
		<path class="st0" d="M66.69,16.81c-0.77-1.01-1.05-2.16-1.05-4.19c0-2.02,0.29-3.17,1.05-4.19c0.84-1.13,2.32-1.82,4-1.82
			c1.46,0,2.63,0.35,3.45,1.03c0.93,0.78,1.46,2.05,1.46,3.47c0,0.28-0.17,0.46-0.41,0.46h-2.2c-0.26,0-0.43-0.14-0.45-0.37
			c-0.1-0.64-0.24-0.99-0.5-1.24c-0.29-0.25-0.72-0.37-1.34-0.37c-0.74,0-1.2,0.16-1.51,0.55c-0.29,0.39-0.38,0.99-0.38,2.46
			s0.1,2.07,0.38,2.46c0.31,0.39,0.77,0.55,1.51,0.55c0.67,0,1.05-0.09,1.32-0.3c0.29-0.23,0.41-0.53,0.53-1.36
			c0.02-0.21,0.19-0.32,0.45-0.32h2.2c0.24,0,0.41,0.18,0.41,0.46c0,1.29-0.41,2.41-1.12,3.17c-0.84,0.87-2.15,1.33-3.78,1.33
			C69.01,18.62,67.53,17.93,66.69,16.81z"/>
		<path class="st0" d="M78.08,17.91V2.48c0-0.25,0.22-0.46,0.48-0.46h2.15c0.26,0,0.48,0.21,0.48,0.46v4.14
			c0,0.3,0.17,0.53,0.45,0.53c0.24,0,0.86-0.53,2.06-0.53c2.58,0,4.19,1.61,4.19,4.25v7.04c0,0.25-0.22,0.46-0.48,0.46h-2.15
			c-0.26,0-0.48-0.21-0.48-0.46V11.1c0-0.99-0.65-1.59-1.79-1.59c-1.12,0-1.79,0.57-1.79,1.49v6.9c0,0.25-0.22,0.46-0.48,0.46h-2.15
			C78.29,18.37,78.08,18.16,78.08,17.91z"/>
		<path class="st0" d="M100.56,7.33v10.58c0,0.25-0.22,0.46-0.48,0.46h-1.2c-0.19,0-0.31-0.05-0.43-0.16
			c-0.19-0.25-0.31-0.6-0.65-0.6c-0.57,0-0.96,1.01-2.87,1.01c-2.58,0-4.19-1.61-4.19-4.25V7.33c0-0.25,0.22-0.46,0.48-0.46h2.15
			c0.26,0,0.48,0.21,0.48,0.46v6.81c0,1.01,0.67,1.59,1.79,1.59c1.12,0,1.79-0.57,1.79-1.49v-6.9c0-0.25,0.22-0.46,0.48-0.46h2.15
			C100.35,6.87,100.56,7.08,100.56,7.33z"/>
		<path class="st0" d="M103.64,17.91V2.48c0-0.25,0.22-0.46,0.48-0.46h2.15c0.26,0,0.48,0.21,0.48,0.46v15.43
			c0,0.25-0.22,0.46-0.48,0.46h-2.15C103.86,18.37,103.64,18.16,103.64,17.91z"/>
		<path class="st0" d="M110.49,16.81c-0.77-1.01-1.05-2.16-1.05-4.19c0-2.02,0.29-3.17,1.05-4.19c0.84-1.13,2.32-1.82,4-1.82
			c3.13,0,4.88,1.95,4.88,5.45v1.01c0,0.25-0.21,0.46-0.48,0.46h-6.2c-0.14,0-0.24,0.09-0.24,0.23c0,1.52,0.62,2.21,2.03,2.21
			c0.98,0,1.55-0.34,1.84-1.1c0.1-0.25,0.29-0.39,0.55-0.39h2.03c0.31,0,0.48,0.21,0.41,0.51c-0.6,2.3-2.37,3.63-4.83,3.63
			C112.81,18.62,111.32,17.93,110.49,16.81z M116.28,11.24c0.14,0,0.24-0.07,0.24-0.21c0-1.13-0.88-1.98-2.03-1.98
			c-1.27,0-2.08,0.78-2.08,1.98c0,0.14,0.1,0.21,0.24,0.21H116.28z"/>
		<path class="st0" d="M127.18,17.91V2.73c0-0.25,0.22-0.46,0.48-0.46h2.37c0.26,0,0.48,0.21,0.48,0.46v5.63
			c0,0.09,0.05,0.14,0.12,0.14c0.05,0,0.1-0.05,0.17-0.14l4.02-5.86c0.07-0.11,0.17-0.23,0.53-0.23h2.61c0.31,0,0.5,0.23,0.5,0.51
			c0,0.12-0.02,0.23-0.1,0.32l-4.79,6.58c-0.1,0.14-0.14,0.25-0.14,0.37c0,0.14,0.05,0.25,0.14,0.39l4.86,6.99
			c0.1,0.14,0.14,0.25,0.14,0.44c0,0.28-0.22,0.51-0.6,0.51h-2.58c-0.36,0-0.48-0.16-0.62-0.37l-3.92-6.16
			c-0.07-0.11-0.14-0.21-0.22-0.21c-0.07,0-0.12,0.05-0.12,0.14v6.14c0,0.25-0.21,0.46-0.48,0.46h-2.37
			C127.4,18.37,127.18,18.16,127.18,17.91z"/>
		<path class="st0" d="M139.38,14.83c0-1.79,1.36-3.59,4.12-3.59h2.44c0.14,0,0.24-0.09,0.24-0.23v-0.37c0-0.94-0.79-1.4-1.84-1.4
			c-0.5,0-1.48,0.11-1.65,0.76c-0.1,0.39-0.21,0.44-0.65,0.44h-1.72c-0.26,0-0.48-0.21-0.48-0.46c0-1.75,1.75-3.36,4.62-3.36
			c2.9,0,4.79,1.49,4.79,4.16v7.13c0,0.25-0.22,0.46-0.48,0.46h-1.2c-0.14,0-0.29-0.05-0.33-0.16c-0.1-0.18-0.26-0.46-0.55-0.46
			c-0.43,0-1.08,0.87-3.11,0.87C141.1,18.62,139.38,17.24,139.38,14.83z M146.3,14.46v-0.55c0-0.14-0.1-0.23-0.24-0.23h-2.22
			c-1.03,0-1.41,0.53-1.41,1.15c0,0.85,0.72,1.22,1.58,1.22C145.24,16.05,146.3,15.66,146.3,14.46z"/>
		<path class="st0" d="M152.23,17.91V7.33c0-0.25,0.21-0.46,0.48-0.46h1.2c0.19,0,0.43,0.12,0.5,0.3c0.14,0.39,0.24,0.97,0.65,0.97
			c0.74,0,1.05-1.26,3.42-1.26h0.81c0.26,0,0.48,0.21,0.48,0.46v2.18c0,0.25-0.22,0.46-0.48,0.46h-0.84c-1.79,0-3.11,0.8-3.11,2.55
			v5.38c0,0.25-0.22,0.46-0.48,0.46h-2.15C152.44,18.37,152.23,18.16,152.23,17.91z"/>
		<path class="st0" d="M161.67,17.91V2.48c0-0.25,0.22-0.46,0.48-0.46h2.15c0.26,0,0.48,0.21,0.48,0.46v15.43
			c0,0.25-0.21,0.46-0.48,0.46h-2.15C161.89,18.37,161.67,18.16,161.67,17.91z"/>
		<path class="st0" d="M167.03,14.55c0-0.25,0.19-0.41,0.48-0.41h2.06c0.29,0,0.48,0.16,0.48,0.41c0,0.99,0.62,1.47,1.89,1.47
			c1.17,0,1.77-0.34,1.77-1.01c0-0.6-0.53-0.87-2.42-1.29c-2.61-0.55-3.83-1.77-3.83-3.77c0-1.98,1.84-3.33,4.47-3.33
			c2.78,0,4.55,1.4,4.55,3.63c0,0.25-0.19,0.41-0.48,0.41h-1.94c-0.29,0-0.48-0.16-0.48-0.41c0-0.71-0.57-1.1-1.63-1.1
			c-0.86,0-1.41,0.35-1.41,0.9c0,0.57,0.43,0.8,2.44,1.29c2.87,0.67,3.83,1.56,3.83,3.61c0,2.3-1.82,3.68-4.88,3.68
			C168.85,18.62,167.03,17.1,167.03,14.55z"/>
		<path class="st0" d="M179.21,17.91V7.33c0-0.25,0.22-0.46,0.48-0.46h1.2c0.19,0,0.43,0.12,0.5,0.3c0.14,0.39,0.24,0.97,0.65,0.97
			c0.74,0,1.05-1.26,3.42-1.26h0.81c0.26,0,0.48,0.21,0.48,0.46v2.18c0,0.25-0.21,0.46-0.48,0.46h-0.84c-1.79,0-3.11,0.8-3.11,2.55
			v5.38c0,0.25-0.21,0.46-0.48,0.46h-2.15C179.42,18.37,179.21,18.16,179.21,17.91z"/>
		<path class="st0" d="M198.35,7.33v10.58c0,0.25-0.21,0.46-0.48,0.46h-1.2c-0.19,0-0.31-0.05-0.43-0.16
			c-0.19-0.25-0.31-0.6-0.65-0.6c-0.57,0-0.96,1.01-2.87,1.01c-2.58,0-4.19-1.61-4.19-4.25V7.33c0-0.25,0.21-0.46,0.48-0.46h2.15
			c0.26,0,0.48,0.21,0.48,0.46v6.81c0,1.01,0.67,1.59,1.79,1.59s1.79-0.57,1.79-1.49v-6.9c0-0.25,0.21-0.46,0.48-0.46h2.15
			C198.13,6.87,198.35,7.08,198.35,7.33z"/>
		<path class="st0" d="M201.43,17.91V2.48c0-0.25,0.21-0.46,0.48-0.46h2.15c0.26,0,0.48,0.21,0.48,0.46v4.14
			c0,0.3,0.17,0.53,0.45,0.53c0.24,0,0.86-0.53,2.06-0.53c2.58,0,4.19,1.61,4.19,4.25v7.04c0,0.25-0.22,0.46-0.48,0.46h-2.15
			c-0.26,0-0.48-0.21-0.48-0.46V11.1c0-0.99-0.65-1.59-1.79-1.59c-1.12,0-1.79,0.57-1.79,1.49v6.9c0,0.25-0.22,0.46-0.48,0.46h-2.15
			C201.64,18.37,201.43,18.16,201.43,17.91z"/>
		<path class="st0" d="M214.85,16.81c-0.77-1.01-1.05-2.16-1.05-4.19c0-2.02,0.29-3.17,1.05-4.19c0.84-1.13,2.32-1.82,4-1.82
			c3.13,0,4.88,1.95,4.88,5.45v1.01c0,0.25-0.21,0.46-0.48,0.46h-6.2c-0.14,0-0.24,0.09-0.24,0.23c0,1.52,0.62,2.21,2.03,2.21
			c0.98,0,1.56-0.34,1.84-1.1c0.1-0.25,0.29-0.39,0.55-0.39h2.03c0.31,0,0.48,0.21,0.41,0.51c-0.6,2.3-2.37,3.63-4.83,3.63
			C217.17,18.62,215.69,17.93,214.85,16.81z M220.64,11.24c0.14,0,0.24-0.07,0.24-0.21c0-1.13-0.89-1.98-2.03-1.98
			c-1.27,0-2.08,0.78-2.08,1.98c0,0.14,0.1,0.21,0.24,0.21H220.64z"/>
	</g>
	<g>
		<path class="st0" d="M3.66,39.16V28.24c0-0.25,0.22-0.46,0.48-0.46h0.57c0.26,0,0.48,0.21,0.48,0.46v10.92
			c0,1.84,1.58,3.47,3.61,3.47s3.61-1.63,3.61-3.47V28.24c0-0.25,0.22-0.46,0.48-0.46h0.57c0.26,0,0.48,0.21,0.48,0.46v10.92
			c0,2.74-2.3,4.94-5.14,4.94S3.66,41.9,3.66,39.16z"/>
		<path class="st0" d="M17.63,43.42V32.84c0-0.25,0.22-0.46,0.48-0.46h0.38c0.14,0,0.24,0.07,0.34,0.16
			c0.12,0.21,0.24,0.46,0.48,0.46c0.65,0,0.86-0.85,3.18-0.85c2.27,0,4.04,1.29,4.04,3.82v7.45c0,0.25-0.22,0.46-0.48,0.46H25.6
			c-0.26,0-0.48-0.21-0.48-0.46v-7.24c0-1.84-1.32-2.67-3.04-2.67c-1.72,0-3.04,0.83-3.04,2.67v7.24c0,0.25-0.22,0.46-0.48,0.46
			h-0.45C17.85,43.88,17.63,43.67,17.63,43.42z"/>
		<path class="st0" d="M29.61,29.28v-1.36c0-0.18,0.17-0.37,0.38-0.37h1.39c0.22,0,0.38,0.18,0.38,0.37v1.36
			c0,0.21-0.17,0.37-0.38,0.37H30C29.78,29.64,29.61,29.48,29.61,29.28z M30.93,43.88h-0.48c-0.33,0-0.48-0.21-0.48-0.46V32.84
			c0-0.25,0.14-0.46,0.48-0.46h0.48c0.34,0,0.48,0.21,0.48,0.46v10.58C31.41,43.67,31.26,43.88,30.93,43.88z"/>
		<path class="st0" d="M37.89,43.53l-4.14-10.39c-0.07-0.16-0.1-0.28-0.1-0.37c0-0.21,0.17-0.39,0.45-0.39h0.62
			c0.22,0,0.36,0.09,0.45,0.35l3.56,9.27c0.05,0.14,0.12,0.18,0.19,0.18c0.07,0,0.17-0.05,0.22-0.18l3.56-9.27
			c0.1-0.25,0.24-0.35,0.45-0.35h0.62c0.29,0,0.45,0.18,0.45,0.39c0,0.09-0.02,0.21-0.1,0.37l-4.14,10.39
			c-0.1,0.23-0.24,0.34-0.45,0.34h-1.22C38.13,43.88,37.99,43.76,37.89,43.53z"/>
		<path class="st0" d="M46.79,42.38c-0.77-1.13-1.03-2.21-1.03-4.25c0-1.86,0.29-2.94,1.1-4.16c0.79-1.17,2.13-1.82,3.8-1.82
			c2.99,0,4.83,1.93,4.83,5.04v1.03c0,0.25-0.22,0.46-0.48,0.46h-7.51c-0.14,0-0.24,0.09-0.24,0.23c0,2.46,1.24,3.84,3.45,3.84
			c1.53,0,2.75-0.57,3.21-2.16c0.07-0.25,0.29-0.39,0.55-0.39h0.48c0.29,0,0.45,0.18,0.41,0.46c-0.29,2.05-2.18,3.45-4.64,3.45
			C48.92,44.11,47.55,43.51,46.79,42.38z M53.75,37.39c0.14,0,0.24-0.09,0.24-0.23c0-2.35-1.2-3.66-3.3-3.66
			c-2.08,0-3.4,1.4-3.4,3.66c0,0.14,0.1,0.23,0.24,0.23H53.75z"/>
		<path class="st0" d="M58.63,43.42V32.84c0-0.25,0.22-0.46,0.48-0.46h0.31c0.26,0,0.41,0.14,0.48,0.46c0.07,0.3,0.07,0.8,0.43,0.8
			c0.62,0,1.05-1.26,3.23-1.26h0.29c0.26,0,0.48,0.21,0.48,0.46v0.48c0,0.25-0.22,0.46-0.48,0.46h-0.31c-1.53,0-3.49,0.83-3.49,3.89
			v5.75c0,0.25-0.22,0.46-0.48,0.46h-0.45C58.84,43.88,58.63,43.67,58.63,43.42z"/>
		<path class="st0" d="M65.25,40.13c0-0.25,0.22-0.46,0.48-0.46h0.48c0.26,0,0.48,0.21,0.48,0.46c0,1.68,1.2,2.69,3.21,2.69
			c1.99,0,3.13-0.74,3.13-2.02c0-1.29-0.77-1.79-3.47-2.32c-2.66-0.51-3.78-1.47-3.78-3.24c0-1.79,1.77-3.08,4.19-3.08
			c2.61,0,4.23,1.31,4.23,3.45c0,0.25-0.22,0.46-0.48,0.46h-0.48c-0.26,0-0.48-0.21-0.48-0.46c0-1.47-0.91-2.18-2.8-2.18
			c-1.67,0-2.68,0.69-2.68,1.82c0,1.06,0.69,1.49,3.35,2.09c2.94,0.67,3.83,1.47,3.83,3.47c0,2.02-1.79,3.31-4.57,3.31
			C67.02,44.11,65.25,42.59,65.25,40.13z"/>
		<path class="st0" d="M76.95,29.28v-1.36c0-0.18,0.17-0.37,0.38-0.37h1.39c0.22,0,0.38,0.18,0.38,0.37v1.36
			c0,0.21-0.17,0.37-0.38,0.37h-1.39C77.12,29.64,76.95,29.48,76.95,29.28z M78.27,43.88h-0.48c-0.33,0-0.48-0.21-0.48-0.46V32.84
			c0-0.25,0.14-0.46,0.48-0.46h0.48c0.33,0,0.48,0.21,0.48,0.46v10.58C78.75,43.67,78.6,43.88,78.27,43.88z"/>
		<path class="st0" d="M83.67,40.2v-6.12c0-0.14-0.1-0.23-0.24-0.23H81.5c-0.26,0-0.48-0.21-0.48-0.46v-0.44
			c0-0.25,0.22-0.46,0.48-0.46h1.94c0.14,0,0.24-0.09,0.24-0.23V28.7c0-0.25,0.22-0.46,0.48-0.46h0.48c0.26,0,0.48,0.21,0.48,0.46
			v3.56c0,0.14,0.1,0.23,0.24,0.23h3.01c0.26,0,0.48,0.21,0.48,0.46v0.44c0,0.25-0.22,0.46-0.48,0.46h-3.01
			c-0.14,0-0.24,0.09-0.24,0.23v6.12c0,1.56,0.57,2.32,2.27,2.32h1.22c0.26,0,0.48,0.21,0.48,0.46v0.44c0,0.25-0.22,0.46-0.48,0.46
			h-1.22C84.89,43.88,83.67,42.84,83.67,40.2z"/>
		<path class="st0" d="M92.93,48.11c0-0.11,0.02-0.23,0.07-0.34l1.67-4.37c0.05-0.11,0.07-0.18,0.07-0.23
			c0-0.07-0.02-0.14-0.07-0.25l-4.38-9.77c-0.07-0.16-0.1-0.28-0.1-0.37c0-0.21,0.17-0.39,0.45-0.39h0.67
			c0.22,0,0.33,0.07,0.45,0.35l3.66,8.42c0.05,0.11,0.07,0.14,0.12,0.14c0.05,0,0.07-0.02,0.12-0.14l3.18-8.42
			c0.12-0.28,0.24-0.35,0.45-0.35h0.67c0.29,0,0.45,0.18,0.45,0.39c0,0.09-0.02,0.21-0.1,0.37l-5.98,14.99
			c-0.1,0.25-0.24,0.35-0.45,0.35h-0.53C93.07,48.48,92.93,48.34,92.93,48.11z"/>
		<path class="st0" d="M107.78,42.04c-0.62-0.97-0.84-1.84-0.84-3.91c0-2.07,0.19-2.97,0.84-3.91c0.89-1.29,2.3-2.07,4.04-2.07
			c1.75,0,3.21,0.76,4.04,2.07c0.65,0.94,0.84,1.84,0.84,3.91c0,2.07-0.19,2.97-0.84,3.91c-0.84,1.31-2.3,2.07-4.04,2.07
			C110.08,44.11,108.62,43.35,107.78,42.04z M114.77,40.98c0.33-0.67,0.43-1.29,0.43-2.85c0-1.56-0.1-2.18-0.43-2.85
			c-0.53-1.08-1.65-1.77-2.94-1.77c-1.29,0-2.39,0.69-2.94,1.77c-0.33,0.67-0.43,1.29-0.43,2.85c0,1.56,0.1,2.18,0.43,2.85
			c0.55,1.08,1.65,1.77,2.94,1.77C113.12,42.75,114.24,42.06,114.77,40.98z"/>
		<path class="st0" d="M120.89,43.42v-9.34c0-0.14-0.1-0.23-0.24-0.23h-2.08c-0.26,0-0.48-0.21-0.48-0.46v-0.44
			c0-0.25,0.21-0.46,0.48-0.46h2.08c0.14,0,0.24-0.09,0.24-0.23v-0.41c0-2.64,1.58-4.3,4.07-4.3h0.12c0.26,0,0.48,0.21,0.48,0.46
			v0.37c0,0.25-0.21,0.46-0.48,0.46h-0.12c-1.65,0-2.63,1.13-2.63,3.01v0.41c0,0.14,0.1,0.23,0.24,0.23h2.73
			c0.26,0,0.48,0.21,0.48,0.46v0.44c0,0.25-0.21,0.46-0.48,0.46h-2.73c-0.14,0-0.24,0.09-0.24,0.23v9.34c0,0.25-0.21,0.46-0.48,0.46
			h-0.48C121.11,43.88,120.89,43.67,120.89,43.42z"/>
	</g>
	<g>
		<path class="st0" d="M2.35,69.02c0-0.09,0.02-0.18,0.05-0.25l4.55-15.15c0.07-0.23,0.24-0.35,0.45-0.35h1.2
			c0.22,0,0.38,0.12,0.45,0.35l4.55,15.15c0.02,0.07,0.05,0.16,0.05,0.25c0,0.18-0.17,0.34-0.5,0.34h-0.6
			c-0.22,0-0.38-0.11-0.45-0.34l-1.17-3.89c-0.07-0.23-0.24-0.32-0.45-0.32H5.53c-0.22,0-0.38,0.09-0.45,0.32L3.9,69.02
			c-0.07,0.23-0.24,0.34-0.45,0.34h-0.6C2.51,69.37,2.35,69.21,2.35,69.02z M10.1,63.39c0.14,0,0.24-0.07,0.19-0.25l-2.18-7.82
			c-0.02-0.09-0.05-0.14-0.1-0.14H7.97c-0.05,0-0.07,0.05-0.1,0.14l-2.18,7.82c-0.05,0.18,0.05,0.25,0.19,0.25H10.1z"/>
		<path class="st0" d="M16,73.51V58.33c0-0.25,0.22-0.46,0.48-0.46h0.38c0.17,0,0.26,0.05,0.36,0.21c0.17,0.3,0.36,0.44,0.57,0.44
			c0.57,0,0.84-0.87,2.75-0.87c1.7,0,3.06,0.69,3.76,1.89c0.6,1.08,0.81,2.18,0.81,4.09c0,1.98-0.22,3.06-0.81,4.09
			c-0.69,1.2-2.06,1.89-3.76,1.89c-1.87,0-2.15-0.69-2.66-0.69c-0.33,0-0.48,0.21-0.48,0.69v3.91c0,0.25-0.22,0.46-0.48,0.46h-0.45
			C16.22,73.97,16,73.76,16,73.51z M23.28,66.47c0.26-0.71,0.36-1.43,0.36-2.85c0-1.45-0.1-2.21-0.36-2.85
			C22.75,59.53,21.94,59,20.55,59c-1.36,0-2.18,0.53-2.73,1.77c-0.26,0.64-0.36,1.4-0.36,2.85c0,1.43,0.1,2.14,0.36,2.85
			c0.5,1.24,1.34,1.77,2.73,1.77C21.94,68.24,22.77,67.71,23.28,66.47z"/>
		<path class="st0" d="M28.25,73.51V58.33c0-0.25,0.22-0.46,0.48-0.46h0.38c0.17,0,0.26,0.05,0.36,0.21
			c0.17,0.3,0.36,0.44,0.57,0.44c0.57,0,0.84-0.87,2.75-0.87c1.7,0,3.06,0.69,3.76,1.89c0.6,1.08,0.81,2.18,0.81,4.09
			c0,1.98-0.22,3.06-0.81,4.09c-0.69,1.2-2.06,1.89-3.76,1.89c-1.87,0-2.15-0.69-2.66-0.69c-0.33,0-0.48,0.21-0.48,0.69v3.91
			c0,0.25-0.22,0.46-0.48,0.46h-0.45C28.47,73.97,28.25,73.76,28.25,73.51z M35.52,66.47c0.26-0.71,0.36-1.43,0.36-2.85
			c0-1.45-0.1-2.21-0.36-2.85C35,59.53,34.18,59,32.8,59c-1.36,0-2.18,0.53-2.73,1.77c-0.26,0.64-0.36,1.4-0.36,2.85
			c0,1.43,0.1,2.14,0.36,2.85c0.5,1.24,1.34,1.77,2.73,1.77C34.18,68.24,35.02,67.71,35.52,66.47z"/>
		<path class="st0" d="M40.5,68.91V53.5c0-0.25,0.22-0.46,0.48-0.46h0.48c0.26,0,0.48,0.21,0.48,0.46v15.41
			c0,0.25-0.22,0.46-0.48,0.46h-0.48C40.71,69.37,40.5,69.16,40.5,68.91z"/>
		<path class="st0" d="M45.14,54.77v-1.36c0-0.18,0.17-0.37,0.38-0.37h1.39c0.22,0,0.38,0.18,0.38,0.37v1.36
			c0,0.21-0.17,0.37-0.38,0.37h-1.39C45.3,55.14,45.14,54.97,45.14,54.77z M46.45,69.37h-0.48c-0.33,0-0.48-0.21-0.48-0.46V58.33
			c0-0.25,0.14-0.46,0.48-0.46h0.48c0.33,0,0.48,0.21,0.48,0.46v10.58C46.93,69.16,46.79,69.37,46.45,69.37z"/>
		<path class="st0" d="M51.07,67.87c-0.77-1.13-1.03-2.21-1.03-4.25c0-1.86,0.29-2.94,1.1-4.16c0.79-1.17,2.13-1.82,3.8-1.82
			c2.99,0,4.83,1.93,4.83,5.04v1.03c0,0.25-0.22,0.46-0.48,0.46h-7.51c-0.14,0-0.24,0.09-0.24,0.23c0,2.46,1.24,3.84,3.45,3.84
			c1.53,0,2.75-0.57,3.21-2.16c0.07-0.25,0.29-0.39,0.55-0.39h0.48c0.29,0,0.45,0.18,0.41,0.46c-0.29,2.05-2.18,3.45-4.64,3.45
			C53.2,69.6,51.84,69,51.07,67.87z M58.03,62.89c0.14,0,0.24-0.09,0.24-0.23c0-2.35-1.2-3.66-3.3-3.66c-2.08,0-3.4,1.4-3.4,3.66
			c0,0.14,0.1,0.23,0.24,0.23H58.03z"/>
		<path class="st0" d="M63.27,67.71c-0.6-1.03-0.81-2.12-0.81-4.09c0-1.98,0.22-3.06,0.81-4.09c0.69-1.2,2.06-1.89,3.76-1.89
			c1.87,0,2.15,0.69,2.66,0.69c0.33,0,0.48-0.21,0.48-0.69V53.5c0-0.25,0.22-0.46,0.48-0.46h0.45c0.26,0,0.48,0.21,0.48,0.46v15.41
			c0,0.25-0.22,0.46-0.48,0.46h-0.38c-0.17,0-0.26-0.05-0.36-0.21c-0.17-0.3-0.36-0.44-0.57-0.44c-0.57,0-0.84,0.87-2.75,0.87
			C65.33,69.6,63.96,68.91,63.27,67.71z M69.75,66.47c0.26-0.64,0.36-1.33,0.36-2.85c0-1.43-0.1-2.14-0.36-2.85
			c-0.5-1.24-1.34-1.77-2.73-1.77c-1.39,0-2.23,0.53-2.73,1.77c-0.26,0.71-0.36,1.43-0.36,2.85c0,1.45,0.1,2.21,0.36,2.85
			c0.53,1.24,1.34,1.77,2.73,1.77C68.39,68.24,69.2,67.71,69.75,66.47z"/>
		<path class="st0" d="M79.56,64.77V64.4c0-0.25,0.22-0.46,0.48-0.46h0.62c0.26,0,0.48,0.21,0.48,0.46v0.37
			c0,2.12,1.48,3.36,3.57,3.36c2.06,0,3.52-1.06,3.52-3.13c0-2.12-1.58-2.81-3.92-3.45c-2.08-0.57-4.28-1.7-4.28-4.46
			c0-2.78,2.42-4.05,4.81-4.05c2.68,0,4.67,1.59,4.67,4.37v0.3c0,0.25-0.22,0.46-0.48,0.46h-0.6c-0.26,0-0.48-0.21-0.48-0.46v-0.3
			c0-1.93-1.34-2.9-3.11-2.9c-1.89,0-3.18,0.83-3.18,2.58c0,1.93,1.89,2.67,4.07,3.27c2.22,0.62,4.14,1.82,4.14,4.65
			c0,2.97-2.49,4.6-5.14,4.6C81.76,69.6,79.56,67.94,79.56,64.77z"/>
		<path class="st0" d="M93.1,67.53c-0.77-1.13-0.84-2.25-0.84-3.91c0-1.66,0.07-2.78,0.84-3.91c0.84-1.24,2.23-2.07,4.04-2.07
			c1.32,0,2.46,0.35,3.25,1.03c0.81,0.74,1.24,1.82,1.24,2.87c0,0.25-0.14,0.46-0.41,0.46h-0.6c-0.22,0-0.45-0.11-0.45-0.37
			c0-0.74-0.29-1.52-0.89-2.02C98.77,59.21,98.02,59,97.14,59c-1.32,0-2.39,0.62-2.94,1.77c-0.36,0.74-0.43,1.52-0.43,2.85
			c0,1.33,0.07,2.12,0.43,2.85c0.55,1.15,1.63,1.77,2.94,1.77c1.08,0,1.87-0.32,2.34-0.85c0.45-0.51,0.67-1.2,0.67-1.77
			c0-0.3,0.24-0.39,0.45-0.39h0.55c0.26,0,0.48,0.21,0.48,0.46c0,0.94-0.38,1.91-1.03,2.6c-0.79,0.83-2.01,1.31-3.47,1.31
			C95.32,69.6,93.93,68.77,93.1,67.53z"/>
		<path class="st0" d="M104.22,54.77v-1.36c0-0.18,0.17-0.37,0.38-0.37h1.39c0.22,0,0.38,0.18,0.38,0.37v1.36
			c0,0.21-0.17,0.37-0.38,0.37h-1.39C104.39,55.14,104.22,54.97,104.22,54.77z M105.53,69.37h-0.48c-0.33,0-0.48-0.21-0.48-0.46
			V58.33c0-0.25,0.14-0.46,0.48-0.46h0.48c0.33,0,0.48,0.21,0.48,0.46v10.58C106.01,69.16,105.87,69.37,105.53,69.37z"/>
		<path class="st0" d="M110.18,67.87c-0.77-1.13-1.03-2.21-1.03-4.25c0-1.86,0.29-2.94,1.1-4.16c0.79-1.17,2.13-1.82,3.8-1.82
			c2.99,0,4.83,1.93,4.83,5.04v1.03c0,0.25-0.22,0.46-0.48,0.46h-7.51c-0.14,0-0.24,0.09-0.24,0.23c0,2.46,1.24,3.84,3.45,3.84
			c1.53,0,2.75-0.57,3.21-2.16c0.07-0.25,0.29-0.39,0.55-0.39h0.48c0.29,0,0.46,0.18,0.41,0.46c-0.29,2.05-2.18,3.45-4.64,3.45
			C112.3,69.6,110.94,69,110.18,67.87z M117.14,62.89c0.14,0,0.24-0.09,0.24-0.23c0-2.35-1.2-3.66-3.3-3.66
			c-2.08,0-3.4,1.4-3.4,3.66c0,0.14,0.1,0.23,0.24,0.23H117.14z"/>
		<path class="st0" d="M121.99,68.91V58.33c0-0.25,0.22-0.46,0.48-0.46h0.38c0.14,0,0.24,0.07,0.33,0.16
			c0.12,0.21,0.24,0.46,0.48,0.46c0.65,0,0.86-0.85,3.18-0.85c2.27,0,4.04,1.29,4.04,3.82v7.45c0,0.25-0.22,0.46-0.48,0.46h-0.45
			c-0.26,0-0.48-0.21-0.48-0.46v-7.24c0-1.84-1.32-2.67-3.04-2.67c-1.72,0-3.04,0.83-3.04,2.67v7.24c0,0.25-0.21,0.46-0.48,0.46
			h-0.45C122.21,69.37,121.99,69.16,121.99,68.91z"/>
		<path class="st0" d="M134.74,67.53c-0.77-1.13-0.84-2.25-0.84-3.91c0-1.66,0.07-2.78,0.84-3.91c0.84-1.24,2.23-2.07,4.04-2.07
			c1.32,0,2.46,0.35,3.25,1.03c0.81,0.74,1.24,1.82,1.24,2.87c0,0.25-0.14,0.46-0.41,0.46h-0.6c-0.21,0-0.46-0.11-0.46-0.37
			c0-0.74-0.29-1.52-0.88-2.02c-0.53-0.41-1.27-0.62-2.15-0.62c-1.32,0-2.39,0.62-2.94,1.77c-0.36,0.74-0.43,1.52-0.43,2.85
			c0,1.33,0.07,2.12,0.43,2.85c0.55,1.15,1.63,1.77,2.94,1.77c1.08,0,1.87-0.32,2.34-0.85c0.46-0.51,0.67-1.2,0.67-1.77
			c0-0.3,0.24-0.39,0.46-0.39h0.55c0.26,0,0.48,0.21,0.48,0.46c0,0.94-0.38,1.91-1.03,2.6c-0.79,0.83-2.01,1.31-3.47,1.31
			C136.97,69.6,135.58,68.77,134.74,67.53z"/>
		<path class="st0" d="M146.6,67.87c-0.77-1.13-1.03-2.21-1.03-4.25c0-1.86,0.29-2.94,1.1-4.16c0.79-1.17,2.13-1.82,3.8-1.82
			c2.99,0,4.83,1.93,4.83,5.04v1.03c0,0.25-0.22,0.46-0.48,0.46h-7.51c-0.14,0-0.24,0.09-0.24,0.23c0,2.46,1.24,3.84,3.45,3.84
			c1.53,0,2.75-0.57,3.21-2.16c0.07-0.25,0.29-0.39,0.55-0.39h0.48c0.29,0,0.46,0.18,0.41,0.46c-0.29,2.05-2.18,3.45-4.64,3.45
			C148.73,69.6,147.37,69,146.6,67.87z M153.57,62.89c0.14,0,0.24-0.09,0.24-0.23c0-2.35-1.2-3.66-3.3-3.66
			c-2.08,0-3.4,1.4-3.4,3.66c0,0.14,0.1,0.23,0.24,0.23H153.57z"/>
		<path class="st0" d="M157.61,65.62c0-0.25,0.22-0.46,0.48-0.46h0.48c0.26,0,0.48,0.21,0.48,0.46c0,1.68,1.2,2.69,3.21,2.69
			c1.99,0,3.13-0.74,3.13-2.02c0-1.29-0.77-1.79-3.47-2.32c-2.66-0.51-3.78-1.47-3.78-3.24c0-1.79,1.77-3.08,4.19-3.08
			c2.61,0,4.24,1.31,4.24,3.45c0,0.25-0.22,0.46-0.48,0.46h-0.48c-0.26,0-0.48-0.21-0.48-0.46c0-1.47-0.91-2.18-2.8-2.18
			c-1.67,0-2.68,0.69-2.68,1.82c0,1.06,0.69,1.49,3.35,2.09c2.94,0.67,3.83,1.47,3.83,3.47c0,2.02-1.79,3.31-4.57,3.31
			C159.38,69.6,157.61,68.08,157.61,65.62z"/>
	</g>
</g>
<g>
	<path class="st0" d="M421.81,57.03l-37.54-21.75l36.1-20.6c0.45-0.27,0.82-0.91,0.82-1.43V2.34c0-0.63-0.52-0.79-0.97-0.52
		L374.6,28.52V3.05c0-0.52-0.43-0.95-0.95-0.95h-9.59c-0.52,0-0.95,0.43-0.95,0.95v65.63c0,0.52,0.43,0.95,0.95,0.95h9.59
		c0.52,0,0.95-0.42,0.95-0.95V41.98l46.92,27.85c0.45,0.27,1.09,0.1,1.09-0.54l0.02-10.84C422.63,57.8,422.26,57.29,421.81,57.03"/>
	<path class="st0" d="M463.84,38.53l11.73-23.57l11.64,23.57H463.84z M515.97,68.58L482.76,2.91c-0.24-0.47-0.67-0.85-1.28-0.85
		h-10.82c-0.63,0-1.15,0.41-1.39,0.84l-34.12,65.61c-0.24,0.46,0.02,1.07,0.7,1.07h11.47c0.52,0,1.14-0.38,1.37-0.85l9.96-19.67
		h33.55l9.86,19.67c0.23,0.47,0.85,0.85,1.37,0.85h11.86C515.92,69.59,516.2,69.05,515.97,68.58"/>
	<path class="st0" d="M328.86,3.01c0-0.52,0.43-0.95,0.95-0.95h9.59c0.52,0,0.95,0.43,0.95,0.95v65.63c0,0.52-0.43,0.95-0.95,0.95
		h-9.59c-0.52,0-0.95-0.43-0.95-0.95V3.01z M322.49,30.65h-28.74V3.01c0-0.52-0.43-0.95-0.95-0.95h-9.59
		c-0.52,0-0.95,0.43-0.95,0.95v27.63h-28.74c-0.52,0-0.95,0.43-0.95,0.95v8.47c0,0.52,0.43,0.95,0.95,0.95h28.74v27.63
		c0,0.52,0.43,0.95,0.95,0.95h9.59c0.52,0,0.95-0.43,0.95-0.95V41.01h28.74c0.52,0,0.95-0.43,0.95-0.95v-8.47
		C323.43,31.07,323.01,30.65,322.49,30.65"/>
</g>
</svg>
